M48
; DRILL file KiCad 10.0.3 date 2026-06-10T14:44:18
; FORMAT={-:-/ absolute / metric / decimal}
; #@! TF.CreationDate,2026-06-10T14:44:18-06:00
; #@! TF.GenerationSoftware,Kicad,Pcbnew,10.0.3
; #@! TF.FileFunction,Plated,1,2,PTH
FMAT,2
METRIC
; #@! TA.AperFunction,Plated,PTH,ComponentDrill
T1C0.800
; #@! TA.AperFunction,Plated,PTH,ComponentDrill
T2C1.000
; #@! TA.AperFunction,Plated,PTH,ComponentDrill
T3C2.200
; #@! TA.AperFunction,Plated,PTH,ComponentDrill
T4C2.700
; #@! TA.AperFunction,Plated,PTH,ComponentDrill
T5C4.500
%
G90
G05
T1
X125.34Y-56.15
X125.42Y-64.15
X135.5Y-56.15
X135.58Y-64.15
X141.92Y-64.4
X142.0Y-55.9
X152.08Y-64.4
X152.16Y-55.9
T2
X56.21Y-56.15
X58.75Y-56.15
X61.29Y-56.15
X63.83Y-56.15
X83.5Y-55.47
X83.5Y-58.01
X83.5Y-60.55
X83.5Y-63.09
X83.5Y-65.63
X83.5Y-68.17
X83.5Y-70.71
X83.5Y-73.25
X83.5Y-75.79
X83.5Y-78.33
X83.5Y-80.87
X83.5Y-83.41
X83.5Y-85.95
X83.5Y-88.49
X83.5Y-91.03
X83.5Y-93.57
X83.5Y-96.11
X83.5Y-98.65
X105.5Y-55.47
X105.5Y-58.01
X105.5Y-60.55
X105.5Y-63.09
X105.5Y-65.63
X105.5Y-68.17
X105.5Y-70.71
X105.5Y-73.25
X105.5Y-75.79
X105.5Y-78.33
X105.5Y-80.87
X105.5Y-83.41
X105.5Y-85.95
X105.5Y-88.49
X105.5Y-91.03
X105.5Y-93.57
X105.5Y-96.11
X105.5Y-98.65
X165.75Y-63.61
X165.75Y-66.15
X165.75Y-68.69
X165.75Y-88.832
X165.75Y-91.372
X165.75Y-93.912
X181.5Y-63.57
X181.5Y-66.11
X181.5Y-68.65
X181.5Y-88.86
X181.5Y-91.4
X181.5Y-93.94
T3
X43.892Y-108.0
X44.0Y-36.75
X236.5Y-36.75
X236.5Y-108.03
T4
X130.0Y-75.15
X130.0Y-80.15
X130.0Y-92.65
X130.0Y-97.65
X146.75Y-75.15
X146.75Y-80.15
X146.75Y-92.9
X146.75Y-97.9
T5
X200.5Y-62.25
X200.5Y-69.45
X200.5Y-88.4
X200.5Y-95.6
X224.25Y-62.25
X224.25Y-69.45
X224.25Y-88.4
X224.25Y-95.6
M30
